<?xml version="1.0" encoding="iso-8859-1"?>
<!-- Generator: Adobe Illustrator 16.0.0, SVG Export Plug-In . SVG Version: 6.00 Build 0)  -->
<!DOCTYPE svg PUBLIC "-//W3C//DTD SVG 1.1//EN" "http://www.w3.org/Graphics/SVG/1.1/DTD/svg11.dtd">
<svg version="1.1" id="Capa_1" xmlns="http://www.w3.org/2000/svg" xmlns:xlink="http://www.w3.org/1999/xlink" x="0px" y="0px"
	 width="612px" height="612px" viewBox="0 0 612 612" style="enable-background:new 0 0 612 612;" xml:space="preserve">
<g>
	<g id="Rectangle_1_copy_7">
		<g>
			<path d="M316.552,369.312h-21.104v94.965h21.104V369.312z M211.035,284.897h-21.104v179.379h21.104V284.897z M263.793,358.759
				h-21.104v105.518h21.104V358.759z M474.827,242.69h-21.103v221.586h21.103V242.69z M369.311,263.793h-21.104v200.483h21.104
				V263.793z M422.069,284.897h-21.104v179.379h21.104V284.897z M200.483,137.173c-11.66,0-21.104,9.444-21.104,21.104
				s9.444,21.104,21.104,21.104c11.649,0,21.104-9.444,21.104-21.104C221.586,146.627,212.143,137.173,200.483,137.173z
				 M569.793,94.966H42.207C18.898,94.966,0,113.864,0,137.173v337.654c0,23.311,18.898,42.207,42.207,42.207h527.586
				c23.309,0,42.207-18.896,42.207-42.207V137.173C612,113.864,593.102,94.966,569.793,94.966z M590.896,453.726
				c0,23.309-18.898,42.205-42.207,42.205H63.311c-23.309,0-42.207-18.896-42.207-42.205V221.587h569.793V453.726z M590.896,200.483
				H21.104v-42.207c0-23.309,18.898-42.207,42.207-42.207h485.379c23.309,0,42.207,18.898,42.207,42.207V200.483z M137.172,137.173
				c-11.66,0-21.104,9.444-21.104,21.104s9.444,21.104,21.104,21.104s21.104-9.444,21.104-21.104
				C158.276,146.627,148.832,137.173,137.172,137.173z M158.276,263.793h-21.104v200.483h21.104V263.793z M73.862,137.173
				c-11.66,0-21.104,9.455-21.104,21.104c0,11.66,9.444,21.104,21.104,21.104c11.649,0,21.103-9.444,21.103-21.104
				C94.965,146.627,85.521,137.173,73.862,137.173z M105.517,369.312H84.414v94.965h21.104V369.312z"/>
		</g>
	</g>
</g>
<g>
</g>
<g>
</g>
<g>
</g>
<g>
</g>
<g>
</g>
<g>
</g>
<g>
</g>
<g>
</g>
<g>
</g>
<g>
</g>
<g>
</g>
<g>
</g>
<g>
</g>
<g>
</g>
<g>
</g>
</svg>
