<?xml version="1.0" encoding="iso-8859-1"?>
<!-- Generator: Adobe Illustrator 16.0.0, SVG Export Plug-In . SVG Version: 6.00 Build 0)  -->
<!DOCTYPE svg PUBLIC "-//W3C//DTD SVG 1.1//EN" "http://www.w3.org/Graphics/SVG/1.1/DTD/svg11.dtd">
<svg version="1.1" id="Capa_1" xmlns="http://www.w3.org/2000/svg" xmlns:xlink="http://www.w3.org/1999/xlink" x="0px" y="0px"
	 width="612px" height="612px" viewBox="0 0 612 612" style="enable-background:new 0 0 612 612;" xml:space="preserve">
<g>
	<g id="Rounded_Rectangle_1_copy">
		<g>
			<path d="M294.667,248.766h-238c-6.256,0-11.333,5.078-11.333,11.333s5.077,11.333,11.333,11.333h238
				c6.256,0,11.333-5.078,11.333-11.333S300.923,248.766,294.667,248.766z M578,90.1H351.333c-18.779,0-34,15.221-34,34v45.333H34
				c-18.779,0-34,15.221-34,34v204c0,18.779,15.221,34,34,34h25.25l19.709,67.479l-0.068,0.135l0.136,0.068l3.729,12.785
				l12.773-3.73l3.241,1.77l1.768-3.242l3.967-1.156l-1.156-3.967l38.431-70.141h220.887c18.779,0,34-15.221,34-34v-90.668H578
				c18.779,0,34-15.22,34-34V124.1C612,105.32,596.779,90.1,578,90.1z M374,384.766c0,18.779-15.221,34-34,34H131.308l-0.963,2.176
				l-2.448-1.336l-33.535,61.211l-18.451-63.184l-14.915,4.352l-1.802-3.219h-2.527c-18.779,0-34-15.221-34-34V226.1
				c0-18.779,15.221-34,34-34H340c18.779,0,34,15.221,34,34V384.766z M589.333,260.1c0,18.779-15.221,34-34,34H396.667v-90.667
				c0-18.779-15.221-34-34-34H340v-22.667c0-18.779,15.221-34,34-34h181.333c18.779,0,34,15.221,34,34V260.1z M249.333,328.1H56.667
				c-6.256,0-11.333,5.078-11.333,11.334s5.077,11.332,11.333,11.332h192.667c6.256,0,11.333-5.076,11.333-11.332
				S255.589,328.1,249.333,328.1z"/>
		</g>
	</g>
</g>
<g>
</g>
<g>
</g>
<g>
</g>
<g>
</g>
<g>
</g>
<g>
</g>
<g>
</g>
<g>
</g>
<g>
</g>
<g>
</g>
<g>
</g>
<g>
</g>
<g>
</g>
<g>
</g>
<g>
</g>
</svg>
